<svg xmlns="http://www.w3.org/2000/svg" viewBox="0 0 64 64" fill="none" role="img" aria-label="MAS Multiple Choice Trainer favicon">
  <rect width="64" height="64" rx="14" fill="#2d4ef6" />
  <path
    d="M16 30c0-1.1.9-2 2-2h4v-7c0-3.3 2.7-6 6-6h12c3.3 0 6 2.7 6 6v7h4c1.1 0 2 .9 2 2 0 .6-.2 1.2-.6 1.6l-11 11a2.5 2.5 0 0 1-3.6 0L16.6 31.6A2 2 0 0 1 16 30Z"
    fill="#e7eeff"
  />
  <path
    d="M26 22h12c2.2 0 4 1.8 4 4v7h-4c-.6 0-1 .4-1 1v10.8L32 46l-5-1.2V34c0-.6-.4-1-1-1h-4v-7c0-2.2 1.8-4 4-4Z"
    stroke="#f8fbff"
    stroke-width="1.2"
  />
  <path
    d="M22 46h20"
    stroke="#f8fbff"
    stroke-width="2.2"
    stroke-linecap="round"
  />
</svg>
